<?xml version="1.0" standalone="no"?><!-- Generator: Adobe Fireworks CS6, Export SVG Extension by Aaron Beall (http://fireworks.abeall.com) . Version: 0.6.1  --><!DOCTYPE svg PUBLIC "-//W3C//DTD SVG 1.1//EN" "http://www.w3.org/Graphics/SVG/1.1/DTD/svg11.dtd"><svg id="Untitled-Page%201" viewBox="0 0 203 65" style="background-color:#ffffff00" version="1.1"	xmlns="http://www.w3.org/2000/svg" xmlns:xlink="http://www.w3.org/1999/xlink" xml:space="preserve"	x="0px" y="0px" width="203px" height="65px">	<g id="Layer%201">		<g>			<path d="M 0 0 L 35 65 L 70 0 L 0 0 Z" fill="#f28f83"/>			<path d="M 0 0 L 35 65 L 35 0 L 0 0 Z" fill="#ee5741"/>			<path d="M 81 0 L 81 42 L 81 64 L 99 42 L 113 42 L 116 42 L 116 41.785 C 126.177 40.3293 134 31.5796 134 21 C 134 10.4204 126.177 1.6707 116 0.215 L 116 0 L 113 0 L 99 0 L 81 0 Z" fill="#78c5f3"/>			<path d="M 81 0 L 81 42 L 81 64 L 99 42 L 99 0 L 81 0 Z" fill="#39a5ed"/>			<path d="M 144 32.5 C 144 50.4495 158.5505 65 176.5 65 C 179.8051 65 182.995 64.5071 186 63.59 L 186 65 L 203 65 L 203 36 L 186 36 L 186 43.225 C 183.5665 45.2693 180.4271 46.5 177 46.5 C 169.2679 46.5 163 40.2321 163 32.5 C 163 24.7679 169.2679 18.5 177 18.5 C 180.9932 18.5 184.5945 20.1732 187.145 22.855 L 199.975 10.025 C 194.059 3.8474 185.7291 0 176.5 0 C 158.5505 0 144 14.5505 144 32.5 Z" fill="#facb32"/>		</g>	</g></svg>