<?xml version="1.0" standalone="no"?>
<!DOCTYPE svg PUBLIC "-//W3C//DTD SVG 1.1//EN" "http://www.w3.org/Graphics/SVG/1.1/DTD/svg11.dtd">
<svg width="100%" height="100%" viewBox="0 0 126 116" version="1.1" xmlns="http://www.w3.org/2000/svg" xmlns:xlink="http://www.w3.org/1999/xlink" xml:space="preserve" style="fill-rule:evenodd;clip-rule:evenodd;stroke-linejoin:round;stroke-miterlimit:1.41421;">
    <g transform="matrix(1,0,0,1,-875.584,-1670.7)">
        <path d="M983.16,1728.53C983.16,1741.01 981.261,1751.55 977.464,1760.17C973.734,1768.71 968.478,1775.02 961.696,1779.09C955.05,1783.22 947.285,1785.29 938.401,1785.29C924.295,1785.29 913.377,1780.24 905.646,1770.13C897.914,1760.03 894.049,1746.13 894.049,1728.43C894.049,1710.05 897.982,1695.94 905.849,1686.11C913.716,1676.41 924.499,1671.56 938.198,1671.56C952.1,1671.56 963.086,1676.41 971.157,1686.11C979.159,1695.74 983.16,1709.88 983.16,1728.53ZM973.598,1728.63C973.598,1696.15 961.798,1679.9 938.198,1679.9C915.072,1679.9 903.509,1696.55 903.509,1729.85C903.509,1761.18 915.208,1776.85 938.605,1776.85C961.934,1776.85 973.598,1760.78 973.598,1728.63ZM979.498,1772.17C986.89,1762.13 990.586,1747.01 990.586,1726.8C990.586,1708.97 986.924,1695.06 979.6,1685.09C993.57,1693.43 1000.56,1707.71 1000.56,1727.92C1000.56,1747.86 993.536,1762.61 979.498,1772.17ZM897.508,1684.99C890.048,1696.52 886.318,1711.27 886.318,1729.24C886.318,1745.52 889.878,1759.62 896.999,1771.56C883.3,1762.54 876.45,1748.1 876.45,1728.23C876.45,1707.81 883.469,1693.4 897.508,1684.99ZM940.857,1726.06C941.216,1726.94 941.411,1727.46 941.443,1727.62L943.152,1732.6C944.552,1736.64 945.936,1739.93 947.303,1742.47C948.605,1744.87 950.249,1746.08 952.234,1746.08C952.593,1746.08 952.918,1746.05 953.211,1745.98C954.057,1745.85 954.578,1745.79 954.773,1745.79C955.522,1745.79 955.897,1746.11 955.897,1746.76C955.897,1747.41 955.27,1747.97 954.017,1748.42C952.763,1748.88 951.242,1749.11 949.451,1749.11C946.294,1749.11 944.048,1748.53 942.713,1747.37C941.378,1746.22 940.19,1743.8 939.148,1740.12L937.049,1732.89L935.242,1736.22L932.459,1741.44C929.399,1746.88 925.851,1749.59 921.815,1749.59C920.936,1749.59 920.187,1749.3 919.568,1748.72C918.95,1748.13 918.641,1747.4 918.641,1746.52C918.641,1745.64 918.95,1744.87 919.568,1744.22C920.187,1743.57 920.919,1743.25 921.766,1743.25C922.221,1743.25 922.645,1743.31 923.035,1743.44C924.435,1743.87 925.216,1744.08 925.379,1744.08C927.137,1744.17 929.464,1741.55 932.361,1736.22L935.975,1729.62L932.801,1721.42L931.678,1718.69C930.897,1716.8 929.887,1715.85 928.65,1715.85C926.99,1715.85 925.916,1716.93 925.428,1719.08L925.135,1720.59C924.972,1721.27 924.581,1721.62 923.963,1721.62C923.344,1721.62 923.035,1721.08 923.035,1720C923.035,1717.2 923.743,1714.71 925.159,1712.51C926.575,1710.31 928.195,1709.21 930.018,1709.21C933.175,1709.21 936.349,1713.82 939.539,1723.03L941.688,1718.93C943.25,1715.97 945.008,1713.61 946.961,1711.85C948.914,1710.09 950.753,1709.21 952.479,1709.21C953.39,1709.21 954.163,1709.53 954.798,1710.16C955.433,1710.8 955.75,1711.57 955.75,1712.49C955.75,1714.4 954.855,1715.37 953.065,1715.37C952.706,1715.37 952.072,1715.24 951.16,1714.98C950.542,1714.81 950.021,1714.73 949.598,1714.73C948.621,1714.73 947.498,1715.37 946.229,1716.66C944.959,1717.94 943.885,1719.53 943.006,1721.42L940.857,1726.06Z" style="fill:rgb(255,193,7);stroke-width:1px;stroke:rgb(255,167,2);"/>
    </g>
</svg>
